<svg enable-background="new 0 0 128 128" viewBox="0 0 128 128" xmlns="http://www.w3.org/2000/svg"><path d="m19.133.002c-1.079 0-2.151.441-2.914 1.198s-1.207 1.82-1.207 2.89v119.822c0 1.07.444 2.134 1.207 2.89.763.757 1.835 1.198 2.914 1.198h89.734c1.079 0 2.151-.441 2.914-1.198s1.207-1.82 1.207-2.89c0-30.989 0-61.977 0-92.965-.117-1.197-.552-2.405-1.271-3.114l-28.074-26.698c-.737-.696-1.742-1.106-2.76-1.126-20.56-.015-41.172-.007-61.75-.007zm4.121 8.176h53.418v22.61c0 1.07.444 2.134 1.207 2.89.763.757 1.835 1.198 2.914 1.198h23.953v84.949h-81.492zm61.66 5.66 13.53 12.862h-13.53zm-19.861 89.531h-32.657v-6.047h32.658v6.047zm30.551-15.802h-63.208v-6.047h63.209v6.047zm0-15.802h-63.208v-6.047h63.209v6.047zm0-15.803h-63.208v-6.047h63.209v6.047z"/></svg>